<svg xmlns="http://www.w3.org/2000/svg" width="18" height="20">
    <defs>
        <style>
            .cls-1{fill:#575756;fill-rule:evenodd}
        </style>
    </defs>
    <g id="종" transform="translate(-115.189 -91.97)">
        <path id="패스_15" data-name="패스 15" class="cls-1" d="M209.687 349.189a2.9 2.9 0 0 0 2.926-2.868h-5.852a2.9 2.9 0 0 0 2.926 2.868z" transform="translate(-85.498 -237.219)"/>
        <path id="패스_16" data-name="패스 16" class="cls-1" d="m133 106.663-2.087-2.318a1.883 1.883 0 0 1-.486-1.26v-3.29a6.312 6.312 0 0 0-5.149-6.213v-.523a1.084 1.084 0 1 0-2.167 0v.521a6.165 6.165 0 0 0-5.149 6.042v3.463a1.883 1.883 0 0 1-.486 1.26l-2.087 2.318a.751.751 0 0 0 .572 1.251h16.468a.751.751 0 0 0 .571-1.251z"/>
    </g>
</svg>
