<svg xmlns="http://www.w3.org/2000/svg" width="17.5" height="17.5">
    <path data-name="패스 5" d="M176.354 166.1v-2.59l-1.854-.493a6.359 6.359 0 0 0-.536-1.292l.963-1.661-1.831-1.832-1.661.963a6.367 6.367 0 0 0-1.292-.536l-.493-1.854h-2.59l-.493 1.854a6.365 6.365 0 0 0-1.292.536l-1.661-.963-1.832 1.832.963 1.661a6.363 6.363 0 0 0-.536 1.292l-1.854.493v2.59l1.854.493a6.36 6.36 0 0 0 .536 1.292l-.963 1.661 1.832 1.831 1.661-.963a6.373 6.373 0 0 0 1.292.536l.493 1.854h2.59l.493-1.854a6.367 6.367 0 0 0 1.292-.536l1.661.963 1.831-1.831-.963-1.661a6.365 6.365 0 0 0 .536-1.292zm-8 1.85a3.146 3.146 0 1 1 3.146-3.146 3.149 3.149 0 0 1-3.146 3.151z" transform="translate(-159.604 -156.059)" style="fill:none;stroke:#fff;stroke-linecap:round;stroke-linejoin:round;stroke-miterlimit:10;stroke-width:1.5px"/>
</svg>
