<svg id="logo" xmlns="http://www.w3.org/2000/svg" width="90.25" height="25.275">
    <defs>
        <style>
            .cls-1{fill:#4bc8a8}
        </style>
    </defs>
    <g id="그룹_1" data-name="그룹 1" transform="translate(0 6.926)">
        <path id="패스_1" data-name="패스 1" class="cls-1" d="M1078.059 1240.064a9.177 9.177 0 1 1 9.177 9.142 9.076 9.076 0 0 1-9.177-9.142zm13.159 0a3.984 3.984 0 1 0-3.982 4.086 3.883 3.883 0 0 0 3.982-4.086z" transform="translate(-1058.239 -1230.922)"/>
        <path id="패스_2" data-name="패스 2" class="cls-1" d="M1007.752 1242.346a2.485 2.485 0 0 0-1.858.805 4.089 4.089 0 1 1 .068-5.554 2.02 2.02 0 0 0 1.54.727 2.652 2.652 0 0 0 1.869-4.538 9.182 9.182 0 0 0-6.452-2.593 9.142 9.142 0 1 0 0 18.285 9.17 9.17 0 0 0 6.7-2.848 2.548 2.548 0 0 0-1.87-4.283z" transform="translate(-993.743 -1231.129)"/>
    </g>
    <path id="사각형_1" data-name="사각형 1" class="cls-1" d="M2.646 0h.071a2.646 2.646 0 0 1 2.645 2.646V22.53a2.681 2.681 0 0 1-2.681 2.681A2.681 2.681 0 0 1 0 22.53V2.646A2.646 2.646 0 0 1 2.646 0z" transform="translate(62.848)"/>
    <path id="패스_3" data-name="패스 3" class="cls-1" d="M1185.695 1240.335a9.177 9.177 0 1 0-9.177 9.142c.175 0 .349-.005.521-.015h5.5a3.152 3.152 0 0 0 3.152-3.152v-5.894a.056.056 0 0 0 0-.009.868.868 0 0 0 .004-.072zm-5.194.934a3.152 3.152 0 0 1-3.152 3.152h-.838a4.087 4.087 0 1 1 3.989-4.111z" transform="translate(-1126.533 -1224.203)"/>
    <path id="패스_4" data-name="패스 4" class="cls-1" d="M1317.943 1240.335a9.177 9.177 0 1 0-9.177 9.142c.175 0 .349-.005.521-.015h5.5a3.152 3.152 0 0 0 3.152-3.152V1240.407a.58.58 0 0 0 .004-.072zm-5.194.934a3.152 3.152 0 0 1-3.152 3.152h-.838a4.087 4.087 0 1 1 3.989-4.111z" transform="translate(-1227.693 -1224.203)"/>
</svg>
